<svg xmlns="http://www.w3.org/2000/svg" viewBox="0 0 128 128">
  <defs>
    <clipPath id="body">
      <rect x="24" y="8" width="80" height="112" rx="8"/>
    </clipPath>
  </defs>

  <!-- Main body -->
  <rect x="24" y="8" width="80" height="112" rx="8" fill="#9a7bb5"/>

  <!-- Screen bezel -->
  <rect x="34" y="18" width="60" height="48" rx="4" fill="#6b4d8a"/>

  <!-- Screen -->
  <rect x="38" y="22" width="52" height="40" rx="2" fill="#9bba7c"/>

  <!-- Pixel art creature - clipped to body so it escapes screen but not icon -->
  <g clip-path="url(#body)">
    <!-- Horns - poke above bezel -->
    <rect x="44" y="16" width="4" height="4" fill="#3a5a1c"/>
    <rect x="48" y="20" width="4" height="4" fill="#3a5a1c"/>
    <rect x="76" y="20" width="4" height="4" fill="#3a5a1c"/>
    <rect x="80" y="16" width="4" height="4" fill="#3a5a1c"/>

    <!-- Head outline - top -->
    <rect x="52" y="24" width="24" height="4" fill="#3a5a1c"/>

    <!-- Body outline - sides -->
    <rect x="44" y="28" width="4" height="4" fill="#3a5a1c"/>
    <rect x="80" y="28" width="4" height="4" fill="#3a5a1c"/>
    <rect x="40" y="32" width="4" height="16" fill="#3a5a1c"/>
    <rect x="84" y="32" width="4" height="12" fill="#3a5a1c"/>

    <!-- Eyes - slanted brows -->
    <rect x="48" y="32" width="4" height="4" fill="#3a5a1c"/>
    <rect x="52" y="36" width="4" height="4" fill="#3a5a1c"/>
    <rect x="56" y="36" width="4" height="4" fill="#3a5a1c"/>
    <rect x="76" y="32" width="4" height="4" fill="#3a5a1c"/>
    <rect x="72" y="36" width="4" height="4" fill="#3a5a1c"/>
    <rect x="68" y="36" width="4" height="4" fill="#3a5a1c"/>

    <!-- Jagged mouth with fangs -->
    <rect x="52" y="44" width="4" height="4" fill="#3a5a1c"/>
    <rect x="56" y="48" width="4" height="4" fill="#3a5a1c"/>
    <rect x="60" y="44" width="4" height="4" fill="#3a5a1c"/>
    <rect x="64" y="44" width="4" height="4" fill="#3a5a1c"/>
    <rect x="68" y="48" width="4" height="4" fill="#3a5a1c"/>
    <rect x="72" y="44" width="4" height="4" fill="#3a5a1c"/>

    <!-- Body outline - bottom -->
    <rect x="44" y="48" width="4" height="4" fill="#3a5a1c"/>
    <rect x="56" y="48" width="16" height="4" fill="#3a5a1c"/>
    <rect x="80" y="44" width="4" height="4" fill="#3a5a1c"/>

    <!-- Clawed feet -->
    <rect x="48" y="52" width="4" height="4" fill="#3a5a1c"/>
    <rect x="56" y="52" width="4" height="4" fill="#3a5a1c"/>
    <rect x="68" y="52" width="4" height="4" fill="#3a5a1c"/>
    <rect x="76" y="52" width="4" height="4" fill="#3a5a1c"/>
    <rect x="80" y="48" width="4" height="4" fill="#3a5a1c"/>

    <!-- Spiked tail - extends past screen edge onto body -->
    <rect x="84" y="44" width="4" height="4" fill="#3a5a1c"/>
    <rect x="88" y="40" width="4" height="4" fill="#3a5a1c"/>
    <rect x="88" y="36" width="4" height="4" fill="#3a5a1c"/>
  </g>

  <!-- D-pad -->
  <rect x="38" y="74" width="10" height="22" rx="2" fill="#553d6b"/>
  <rect x="32" y="80" width="22" height="10" rx="2" fill="#553d6b"/>

  <!-- A and B buttons -->
  <circle cx="88" cy="82" r="7" fill="#8a4a6a"/>
  <circle cx="74" cy="92" r="7" fill="#8a4a6a"/>

  <!-- Start/Select -->
  <rect x="48" y="106" width="12" height="4" rx="2" fill="#7d5f9e" transform="rotate(-25 54 108)"/>
  <rect x="66" y="106" width="12" height="4" rx="2" fill="#7d5f9e" transform="rotate(-25 72 108)"/>
</svg>
